Coordinates
version=1
nRows=19
nColumns=24
inDegrees=yes

Units are S.I. units (second, meters, Newtons, ...)
Angles are in degrees.

endheader
time	pelvis_tilt	pelvis_list	pelvis_rotation	pelvis_tx	pelvis_ty	pelvis_tz	hip_flexion_r	hip_adduction_r	hip_rotation_r	knee_angle_r	ankle_angle_r	subtalar_angle_r	mtp_angle_r	hip_flexion_l	hip_adduction_l	hip_rotation_l	knee_angle_l	ankle_angle_l	subtalar_angle_l	mtp_angle_l	lumbar_extension	lumbar_bending	lumbar_rotation
      1.91000000	     26.09220708	     -0.92788584	      1.37576143	      0.22036312	      0.92202288	      0.00607998	    -32.11282116	      3.60080888	     15.24396091	      8.83691245	     -1.88760823	    -13.02480688	     29.94491509	    -17.52473450	     -1.34779023	     -3.68635902	    -51.15211098	     -0.84994276	    -28.40800884	     19.21881434	    -29.89324666	      1.92888973	      2.93948408
      1.91500000	     26.12200872	     -0.73773355	      1.37168537	      0.22539327	      0.92206316	      0.00625238	    -32.64070106	      3.39470132	     15.32979384	      9.10151161	     -1.75763844	    -13.16107580	     29.89035083	    -16.81560974	     -1.01657454	     -3.28937838	    -50.71355735	     -0.09092336	    -28.34818896	     19.22305056	    -29.96751842	      1.72072587	      2.90849140
      1.92000000	     26.16353751	     -0.60375555	      1.33117943	      0.23037951	      0.92205659	      0.00647884	    -33.16147691	      3.22044197	     15.56039803	      9.34013330	     -1.67043604	    -13.40541096	     29.79255586	    -16.14581280	     -0.73046539	     -2.92694788	    -50.19949320	      0.70247080	    -28.10867842	     19.22388512	    -30.06159445	      1.55342300	      2.91578775
      1.92500000	     26.17788060	     -0.50781179	      1.24347295	      0.23539217	      0.92196547	      0.00673636	    -33.62025024	      3.06266564	     15.78771540	      9.51343291	     -1.46191238	    -13.48533624	     29.77424335	    -15.47281849	     -0.46194443	     -2.63513356	    -49.60544344	      1.31904395	    -28.17381287	     19.24830811	    -30.12366762	      1.40775669	      2.99796684
      1.93000000	     26.24592483	     -0.42597705	      1.12324246	      0.24030665	      0.92187810	      0.00703911	    -34.14211164	      2.88959623	     16.17898269	      9.72602470	     -1.43400847	    -13.95938316	     29.62996961	    -14.87517765	     -0.20807499	     -2.35170475	    -48.95631203	      2.03148304	    -27.69041195	     19.29289790	    -30.25606430	      1.26159932	      3.12655576
      1.93500000	     26.27457261	     -0.39008713	      0.95954346	      0.24523821	      0.92168952	      0.00737938	    -34.59061712	      2.74044342	     16.57585978	      9.87987636	     -1.25036584	    -14.26198995	     29.55417798	    -14.25765667	      0.01590433	     -2.12255911	    -48.23569180	      2.55876870	    -27.56302237	     19.31515611	    -30.34261874	      1.14323599	      3.34655415
      1.94000000	     26.32901806	     -0.42605320	      0.78303486	      0.25005185	      0.92147225	      0.00772397	    -35.04437037	      2.63909792	     17.14446507	     10.01813662	     -1.23636907	    -14.78209758	     29.41494677	    -13.67710678	      0.16070330	     -1.91644349	    -47.47395530	      3.14077606	    -27.31721810	     19.35675175	    -30.47197270	      1.09513126	      3.56076716
      1.94500000	     26.38490420	     -0.44518880	      0.59446808	      0.25485787	      0.92122960	      0.00802349	    -35.46640997	      2.52539020	     17.54674287	     10.07753377	     -0.97240111	    -14.89485119	     29.40896269	    -13.12971619	      0.34736123	     -1.66825794	    -46.61043105	      3.51444206	    -27.31893330	     19.38255982	    -30.60307466	      1.03149931	      3.80129494
      1.95000000	     26.45642853	     -0.55825654	      0.30825515	      0.25950043	      0.92095971	      0.00850015	    -35.88838697	      2.42685315	     18.33112245	     10.16481609	     -1.02490482	    -15.71432905	     29.24776766	    -12.61141325	      0.41892790	     -1.57574204	    -45.71672535	      3.94852904	    -26.99960175	     19.47960298	    -30.77180351	      1.01145962	      4.20556699
      1.95500000	     26.54576776	     -0.65553385	      0.06569948	      0.26414004	      0.92066712	      0.00885932	    -36.30033262	      2.34855701	     18.85623147	     10.16410793	     -0.71647350	    -15.82768402	     29.25522353	    -12.13827501	      0.52021596	     -1.37829191	    -44.73537686	      4.21816131	    -27.00697589	     19.50465688	    -30.96063593	      0.99977603	      4.52956370
      1.96000000	     26.62851366	     -0.85490949	     -0.27891690	      0.26860196	      0.92033366	      0.00937965	    -36.68431097	      2.28553446	     19.77988459	     10.18753705	     -0.78745971	    -16.72058064	     29.11843567	    -11.66875725	      0.49886595	     -1.34044837	    -43.72435513	      4.46137999	    -26.82507015	     19.62864103	    -31.16553750	      1.04152082	      5.02532078
      1.96500000	     26.74072653	     -1.03019677	     -0.56266407	      0.27310012	      0.91998171	      0.00975600	    -37.08087778	      2.24986983	     20.37294739	     10.12854314	     -0.44506869	    -16.84842262	     29.13593520	    -11.26151508	      0.50823362	     -1.18231558	    -42.63514627	      4.65409554	    -26.84090643	     19.65556794	    -31.39777189	      1.09101536	      5.45356634
      1.97000000	     26.82450967	     -1.29410815	     -0.92703767	      0.27743092	      0.91956431	      0.01028333	    -37.43859887	      2.22501642	     21.35836743	     10.11855728	     -0.53804818	    -17.78145179	     29.02572709	    -10.83145841	      0.40603364	     -1.14905331	    -41.51984825	      4.73330604	    -26.79482252	     19.81055280	    -31.62485110	      1.18437309	      6.00396966
      1.97500000	     26.94974293	     -1.54670249	     -1.22725057	      0.28180909	      0.91914767	      0.01066739	    -37.81877101	      2.24606217	     21.99445142	     10.00744824	     -0.18364822	    -17.91231069	     29.05203814	    -10.47971178	      0.31078771	     -1.01346632	    -40.33381209	      4.84648731	    -26.82106108	     19.83842728	    -31.89099697	      1.29921292	      6.50267776
      1.98000000	     27.01885246	     -1.85890655	     -1.59558668	      0.28605598	      0.91864104	      0.01117027	    -38.14537986	      2.25397441	     22.98931809	      9.97264695	     -0.26581868	    -18.82057281	     28.97100063	    -10.08155661	      0.14375081	     -0.95285475	    -39.11152653	      4.78147595	    -26.92691114	     20.01874205	    -32.12040170	      1.43562322	      7.08517866
      1.98500000	     27.13936848	     -2.17898881	     -1.88741153	      0.29033570	      0.91813791	      0.01152670	    -38.50467357	      2.33506933	     23.63989721	      9.83094952	      0.09064491	    -18.93764897	     29.00248073	     -9.76454443	     -0.04732843	     -0.79591026	    -37.84732751	      4.82554293	    -26.96056512	     20.04436526	    -32.40248173	      1.61679216	      7.62878985
      1.99000000	     27.18672614	     -2.52945642	     -2.25757897	      0.29454028	      0.91754264	      0.01200102	    -38.80110623	      2.36761440	     24.63239840	      9.77580379	      0.03696889	    -19.78340500	     28.93019920	     -9.40285520	     -0.27156787	     -0.70799233	    -36.50781074	      4.60654581	    -27.25062920	     20.23577627	    -32.62269924	      1.78676948	      8.23585335
      1.99500000	     27.29084772	     -2.90480710	     -2.53422210	      0.29876426	      0.91694803	      0.01231871	    -39.13968432	      2.49979380	     25.28564075	      9.62019723	      0.38154550	    -19.89499840	     28.96136505	     -9.11598834	     -0.54895924	     -0.52214371	    -35.16184105	      4.59062762	    -27.29143705	     20.26269517	    -32.90481208	      2.02566984	      8.80631756
      2.00000000	     27.34717790	     -3.30166847	     -2.89316071	      0.30298287	      0.91631529	      0.01277596	    -39.41121920	      2.59957097	     26.09468513	      9.43919448	      0.60948768	    -20.14842273	     28.95823109	     -8.83168528	     -0.86129575	     -0.45538024	    -33.72190020	      4.39668695	    -27.48009635	     20.29761610	    -33.14476252	      2.23857645	      9.40633523
